<mxfile host="www.draw.io" modified="2020-01-15T12:14:58.696Z" agent="Mozilla/5.0 (Windows NT 10.0; Win64; x64) AppleWebKit/537.36 (KHTML, like Gecko) Chrome/79.0.3945.117 Safari/537.36" etag="kzuuNwYDU3XBzQHEx0GU" version="12.5.3" type="github">
  <diagram id="prtHgNgQTEPvFCAcTncT" name="Page-1">
    <mxGraphModel dx="3197" dy="1270" grid="0" gridSize="10" guides="1" tooltips="1" connect="1" arrows="1" fold="1" page="1" pageScale="1" pageWidth="827" pageHeight="1169" background="none" math="0" shadow="0">
      <root>
        <mxCell id="0"/>
        <mxCell id="1" parent="0"/>
        <mxCell id="dNxyNK7c78bLwvsdeMH5-19" value="Log System and Documents Flow" style="swimlane;html=1;childLayout=stackLayout;resizeParent=1;resizeParentMax=0;horizontal=0;startSize=20;horizontalStack=0;" parent="1" vertex="1">
          <mxGeometry x="-470" y="260" width="1190" height="764" as="geometry"/>
        </mxCell>
        <mxCell id="dNxyNK7c78bLwvsdeMH5-20" value="Server" style="swimlane;html=1;startSize=20;horizontal=0;" parent="dNxyNK7c78bLwvsdeMH5-19" vertex="1">
          <mxGeometry x="20" width="1170" height="120" as="geometry"/>
        </mxCell>
        <mxCell id="dNxyNK7c78bLwvsdeMH5-23" value="XML string received" style="ellipse;whiteSpace=wrap;html=1;" parent="dNxyNK7c78bLwvsdeMH5-20" vertex="1">
          <mxGeometry x="120" y="10" width="80" height="70" as="geometry"/>
        </mxCell>
        <mxCell id="61AJoyGq4dDdh3JpDD7k-20" value="XML received" style="ellipse;whiteSpace=wrap;html=1;" vertex="1" parent="dNxyNK7c78bLwvsdeMH5-20">
          <mxGeometry x="230" y="10" width="80" height="70" as="geometry"/>
        </mxCell>
        <mxCell id="61AJoyGq4dDdh3JpDD7k-58" value="&lt;span style=&quot;white-space: normal&quot;&gt;Send successes&amp;nbsp;&lt;/span&gt;" style="rounded=0;whiteSpace=wrap;html=1;" vertex="1" parent="dNxyNK7c78bLwvsdeMH5-20">
          <mxGeometry x="820" y="30" width="120" height="60" as="geometry"/>
        </mxCell>
        <mxCell id="61AJoyGq4dDdh3JpDD7k-59" value="&lt;span style=&quot;white-space: normal&quot;&gt;Send Fail&amp;nbsp;&lt;/span&gt;" style="rounded=0;whiteSpace=wrap;html=1;" vertex="1" parent="dNxyNK7c78bLwvsdeMH5-20">
          <mxGeometry x="660" y="30" width="120" height="60" as="geometry"/>
        </mxCell>
        <mxCell id="dNxyNK7c78bLwvsdeMH5-21" value="XMLRequstHandler" style="swimlane;html=1;startSize=20;horizontal=0;" parent="dNxyNK7c78bLwvsdeMH5-19" vertex="1">
          <mxGeometry x="20" y="120" width="1170" height="254" as="geometry"/>
        </mxCell>
        <mxCell id="61AJoyGq4dDdh3JpDD7k-14" value="Create XML from the XML string" style="rounded=0;whiteSpace=wrap;html=1;fontFamily=Helvetica;fontSize=12;fontColor=#000000;align=center;" vertex="1" parent="dNxyNK7c78bLwvsdeMH5-21">
          <mxGeometry x="40" y="20" width="80" height="50" as="geometry"/>
        </mxCell>
        <mxCell id="61AJoyGq4dDdh3JpDD7k-24" style="edgeStyle=orthogonalEdgeStyle;rounded=0;orthogonalLoop=1;jettySize=auto;html=1;exitX=1;exitY=0.5;exitDx=0;exitDy=0;entryX=0;entryY=0.5;entryDx=0;entryDy=0;" edge="1" parent="dNxyNK7c78bLwvsdeMH5-21" source="61AJoyGq4dDdh3JpDD7k-16" target="61AJoyGq4dDdh3JpDD7k-23">
          <mxGeometry relative="1" as="geometry"/>
        </mxCell>
        <mxCell id="61AJoyGq4dDdh3JpDD7k-16" value="Activate Handler" style="rounded=0;whiteSpace=wrap;html=1;fontFamily=Helvetica;fontSize=12;fontColor=#000000;align=center;" vertex="1" parent="dNxyNK7c78bLwvsdeMH5-21">
          <mxGeometry x="150" y="20" width="80" height="50" as="geometry"/>
        </mxCell>
        <mxCell id="61AJoyGq4dDdh3JpDD7k-26" style="edgeStyle=orthogonalEdgeStyle;rounded=0;orthogonalLoop=1;jettySize=auto;html=1;exitX=0.5;exitY=1;exitDx=0;exitDy=0;entryX=0.5;entryY=0;entryDx=0;entryDy=0;" edge="1" parent="dNxyNK7c78bLwvsdeMH5-21" source="61AJoyGq4dDdh3JpDD7k-23" target="61AJoyGq4dDdh3JpDD7k-25">
          <mxGeometry relative="1" as="geometry"/>
        </mxCell>
        <mxCell id="61AJoyGq4dDdh3JpDD7k-23" value="Convert the parameters from the XML to a list" style="rounded=0;whiteSpace=wrap;html=1;fontFamily=Helvetica;fontSize=12;fontColor=#000000;align=center;" vertex="1" parent="dNxyNK7c78bLwvsdeMH5-21">
          <mxGeometry x="260" y="20" width="100" height="60" as="geometry"/>
        </mxCell>
        <mxCell id="61AJoyGq4dDdh3JpDD7k-25" value="From the Function ID choose the Function with the ID" style="rounded=0;whiteSpace=wrap;html=1;fontFamily=Helvetica;fontSize=12;fontColor=#000000;align=center;" vertex="1" parent="dNxyNK7c78bLwvsdeMH5-21">
          <mxGeometry x="40" y="110" width="100" height="80" as="geometry"/>
        </mxCell>
        <mxCell id="dNxyNK7c78bLwvsdeMH5-22" value="Functions (in Global.cs)" style="swimlane;html=1;startSize=20;horizontal=0;" parent="dNxyNK7c78bLwvsdeMH5-19" vertex="1">
          <mxGeometry x="20" y="374" width="1170" height="240" as="geometry"/>
        </mxCell>
        <mxCell id="61AJoyGq4dDdh3JpDD7k-31" style="edgeStyle=orthogonalEdgeStyle;rounded=0;orthogonalLoop=1;jettySize=auto;html=1;exitX=1;exitY=0.5;exitDx=0;exitDy=0;" edge="1" parent="dNxyNK7c78bLwvsdeMH5-22" source="61AJoyGq4dDdh3JpDD7k-28" target="61AJoyGq4dDdh3JpDD7k-30">
          <mxGeometry relative="1" as="geometry"/>
        </mxCell>
        <mxCell id="61AJoyGq4dDdh3JpDD7k-28" value="Activate the function corresponding to the ID" style="rounded=0;whiteSpace=wrap;html=1;fontFamily=Helvetica;fontSize=12;fontColor=#000000;align=center;" vertex="1" parent="dNxyNK7c78bLwvsdeMH5-22">
          <mxGeometry x="45" y="20" width="90" height="60" as="geometry"/>
        </mxCell>
        <mxCell id="61AJoyGq4dDdh3JpDD7k-33" style="edgeStyle=orthogonalEdgeStyle;rounded=0;orthogonalLoop=1;jettySize=auto;html=1;exitX=1;exitY=0.5;exitDx=0;exitDy=0;entryX=0;entryY=0.5;entryDx=0;entryDy=0;" edge="1" parent="dNxyNK7c78bLwvsdeMH5-22" source="61AJoyGq4dDdh3JpDD7k-30" target="61AJoyGq4dDdh3JpDD7k-32">
          <mxGeometry relative="1" as="geometry"/>
        </mxCell>
        <mxCell id="61AJoyGq4dDdh3JpDD7k-30" value="Parameters received" style="ellipse;whiteSpace=wrap;html=1;" vertex="1" parent="dNxyNK7c78bLwvsdeMH5-22">
          <mxGeometry x="190" y="15" width="80" height="70" as="geometry"/>
        </mxCell>
        <mxCell id="61AJoyGq4dDdh3JpDD7k-41" value="YES" style="edgeStyle=orthogonalEdgeStyle;rounded=0;orthogonalLoop=1;jettySize=auto;html=1;exitX=0.5;exitY=1;exitDx=0;exitDy=0;entryX=0.5;entryY=0;entryDx=0;entryDy=0;" edge="1" parent="dNxyNK7c78bLwvsdeMH5-22" source="61AJoyGq4dDdh3JpDD7k-32" target="61AJoyGq4dDdh3JpDD7k-40">
          <mxGeometry relative="1" as="geometry"/>
        </mxCell>
        <mxCell id="61AJoyGq4dDdh3JpDD7k-107" value="NO" style="edgeStyle=orthogonalEdgeStyle;rounded=0;orthogonalLoop=1;jettySize=auto;html=1;" edge="1" parent="dNxyNK7c78bLwvsdeMH5-22" source="61AJoyGq4dDdh3JpDD7k-32" target="61AJoyGq4dDdh3JpDD7k-106">
          <mxGeometry relative="1" as="geometry"/>
        </mxCell>
        <mxCell id="61AJoyGq4dDdh3JpDD7k-32" value="Need DataBase?" style="rhombus;whiteSpace=wrap;html=1;" vertex="1" parent="dNxyNK7c78bLwvsdeMH5-22">
          <mxGeometry x="330" y="5" width="90" height="90" as="geometry"/>
        </mxCell>
        <mxCell id="61AJoyGq4dDdh3JpDD7k-40" value="Create SQL Command" style="rounded=0;whiteSpace=wrap;html=1;fontFamily=Helvetica;fontSize=12;fontColor=#000000;align=center;" vertex="1" parent="dNxyNK7c78bLwvsdeMH5-22">
          <mxGeometry x="30" y="110" width="90" height="60" as="geometry"/>
        </mxCell>
        <mxCell id="61AJoyGq4dDdh3JpDD7k-110" style="edgeStyle=orthogonalEdgeStyle;rounded=0;orthogonalLoop=1;jettySize=auto;html=1;exitX=0.5;exitY=0;exitDx=0;exitDy=0;entryX=1;entryY=0.5;entryDx=0;entryDy=0;" edge="1" parent="dNxyNK7c78bLwvsdeMH5-22" source="61AJoyGq4dDdh3JpDD7k-73" target="61AJoyGq4dDdh3JpDD7k-105">
          <mxGeometry relative="1" as="geometry"/>
        </mxCell>
        <mxCell id="61AJoyGq4dDdh3JpDD7k-115" value="Calculate" style="edgeStyle=orthogonalEdgeStyle;rounded=0;orthogonalLoop=1;jettySize=auto;html=1;exitX=1;exitY=0.5;exitDx=0;exitDy=0;entryX=0.5;entryY=1;entryDx=0;entryDy=0;" edge="1" parent="dNxyNK7c78bLwvsdeMH5-22" source="61AJoyGq4dDdh3JpDD7k-73" target="61AJoyGq4dDdh3JpDD7k-80">
          <mxGeometry relative="1" as="geometry"/>
        </mxCell>
        <mxCell id="61AJoyGq4dDdh3JpDD7k-73" value="DataTable received" style="ellipse;whiteSpace=wrap;html=1;" vertex="1" parent="dNxyNK7c78bLwvsdeMH5-22">
          <mxGeometry x="720" y="145" width="80" height="70" as="geometry"/>
        </mxCell>
        <mxCell id="61AJoyGq4dDdh3JpDD7k-116" style="edgeStyle=orthogonalEdgeStyle;rounded=0;orthogonalLoop=1;jettySize=auto;html=1;exitX=0;exitY=0.5;exitDx=0;exitDy=0;entryX=0.5;entryY=1;entryDx=0;entryDy=0;" edge="1" parent="dNxyNK7c78bLwvsdeMH5-22" source="61AJoyGq4dDdh3JpDD7k-74" target="61AJoyGq4dDdh3JpDD7k-80">
          <mxGeometry relative="1" as="geometry">
            <Array as="points">
              <mxPoint x="880" y="180"/>
              <mxPoint x="880" y="110"/>
            </Array>
          </mxGeometry>
        </mxCell>
        <mxCell id="61AJoyGq4dDdh3JpDD7k-74" value="Feedback received" style="ellipse;whiteSpace=wrap;html=1;" vertex="1" parent="dNxyNK7c78bLwvsdeMH5-22">
          <mxGeometry x="970" y="145" width="80" height="70" as="geometry"/>
        </mxCell>
        <mxCell id="61AJoyGq4dDdh3JpDD7k-113" value="NO" style="edgeStyle=orthogonalEdgeStyle;rounded=0;orthogonalLoop=1;jettySize=auto;html=1;exitX=0;exitY=0;exitDx=0;exitDy=0;entryX=1;entryY=1;entryDx=0;entryDy=0;" edge="1" parent="dNxyNK7c78bLwvsdeMH5-22" source="61AJoyGq4dDdh3JpDD7k-80" target="61AJoyGq4dDdh3JpDD7k-106">
          <mxGeometry relative="1" as="geometry"/>
        </mxCell>
        <mxCell id="61AJoyGq4dDdh3JpDD7k-119" value="YES" style="edgeStyle=orthogonalEdgeStyle;rounded=0;orthogonalLoop=1;jettySize=auto;html=1;exitX=1;exitY=0.5;exitDx=0;exitDy=0;entryX=0;entryY=0.5;entryDx=0;entryDy=0;" edge="1" parent="dNxyNK7c78bLwvsdeMH5-22" source="61AJoyGq4dDdh3JpDD7k-80" target="61AJoyGq4dDdh3JpDD7k-118">
          <mxGeometry relative="1" as="geometry"/>
        </mxCell>
        <mxCell id="61AJoyGq4dDdh3JpDD7k-80" value="Need to Notifiy?" style="rhombus;whiteSpace=wrap;html=1;" vertex="1" parent="dNxyNK7c78bLwvsdeMH5-22">
          <mxGeometry x="810" y="30" width="80" height="80" as="geometry"/>
        </mxCell>
        <mxCell id="61AJoyGq4dDdh3JpDD7k-111" value="YES" style="edgeStyle=orthogonalEdgeStyle;rounded=0;orthogonalLoop=1;jettySize=auto;html=1;exitX=0;exitY=0.5;exitDx=0;exitDy=0;entryX=1;entryY=0.5;entryDx=0;entryDy=0;" edge="1" parent="dNxyNK7c78bLwvsdeMH5-22" source="61AJoyGq4dDdh3JpDD7k-105" target="61AJoyGq4dDdh3JpDD7k-40">
          <mxGeometry relative="1" as="geometry">
            <Array as="points">
              <mxPoint x="570" y="130"/>
              <mxPoint x="390" y="130"/>
              <mxPoint x="390" y="140"/>
            </Array>
          </mxGeometry>
        </mxCell>
        <mxCell id="61AJoyGq4dDdh3JpDD7k-114" value="NO" style="edgeStyle=orthogonalEdgeStyle;rounded=0;orthogonalLoop=1;jettySize=auto;html=1;exitX=1;exitY=0;exitDx=0;exitDy=0;entryX=0;entryY=0.5;entryDx=0;entryDy=0;" edge="1" parent="dNxyNK7c78bLwvsdeMH5-22" source="61AJoyGq4dDdh3JpDD7k-105" target="61AJoyGq4dDdh3JpDD7k-80">
          <mxGeometry relative="1" as="geometry"/>
        </mxCell>
        <mxCell id="61AJoyGq4dDdh3JpDD7k-105" value="More SQL commands?" style="rhombus;whiteSpace=wrap;html=1;" vertex="1" parent="dNxyNK7c78bLwvsdeMH5-22">
          <mxGeometry x="570" y="75" width="90" height="90" as="geometry"/>
        </mxCell>
        <mxCell id="61AJoyGq4dDdh3JpDD7k-106" value="Function successes?" style="rhombus;whiteSpace=wrap;html=1;" vertex="1" parent="dNxyNK7c78bLwvsdeMH5-22">
          <mxGeometry x="470" y="5" width="90" height="90" as="geometry"/>
        </mxCell>
        <mxCell id="61AJoyGq4dDdh3JpDD7k-118" value="Notify" style="rounded=0;whiteSpace=wrap;html=1;fontFamily=Helvetica;fontSize=12;fontColor=#000000;align=center;labelBackgroundColor=#00FFFF;fillColor=#00FFFF;" vertex="1" parent="dNxyNK7c78bLwvsdeMH5-22">
          <mxGeometry x="985" y="40" width="90" height="60" as="geometry"/>
        </mxCell>
        <mxCell id="61AJoyGq4dDdh3JpDD7k-34" value="DB Client" style="swimlane;html=1;startSize=20;horizontal=0;" vertex="1" parent="dNxyNK7c78bLwvsdeMH5-19">
          <mxGeometry x="20" y="614" width="1170" height="150" as="geometry"/>
        </mxCell>
        <mxCell id="61AJoyGq4dDdh3JpDD7k-70" style="edgeStyle=orthogonalEdgeStyle;rounded=0;orthogonalLoop=1;jettySize=auto;html=1;exitX=1;exitY=0.5;exitDx=0;exitDy=0;entryX=0;entryY=0.5;entryDx=0;entryDy=0;" edge="1" parent="61AJoyGq4dDdh3JpDD7k-34" source="61AJoyGq4dDdh3JpDD7k-38" target="61AJoyGq4dDdh3JpDD7k-50">
          <mxGeometry relative="1" as="geometry"/>
        </mxCell>
        <mxCell id="61AJoyGq4dDdh3JpDD7k-38" value="Command received" style="ellipse;whiteSpace=wrap;html=1;" vertex="1" parent="61AJoyGq4dDdh3JpDD7k-34">
          <mxGeometry x="50" y="25" width="80" height="70" as="geometry"/>
        </mxCell>
        <mxCell id="61AJoyGq4dDdh3JpDD7k-50" value="Send Command to SQL Server" style="rounded=0;whiteSpace=wrap;html=1;fontFamily=Helvetica;fontSize=12;fontColor=#000000;align=center;" vertex="1" parent="61AJoyGq4dDdh3JpDD7k-34">
          <mxGeometry x="170" y="30" width="90" height="60" as="geometry"/>
        </mxCell>
        <mxCell id="61AJoyGq4dDdh3JpDD7k-75" style="edgeStyle=orthogonalEdgeStyle;rounded=0;orthogonalLoop=1;jettySize=auto;html=1;exitX=1;exitY=0.5;exitDx=0;exitDy=0;entryX=0;entryY=0.5;entryDx=0;entryDy=0;" edge="1" parent="61AJoyGq4dDdh3JpDD7k-34" source="61AJoyGq4dDdh3JpDD7k-53" target="61AJoyGq4dDdh3JpDD7k-39">
          <mxGeometry relative="1" as="geometry"/>
        </mxCell>
        <mxCell id="61AJoyGq4dDdh3JpDD7k-53" value="Result received" style="ellipse;whiteSpace=wrap;html=1;" vertex="1" parent="61AJoyGq4dDdh3JpDD7k-34">
          <mxGeometry x="300" y="30" width="80" height="70" as="geometry"/>
        </mxCell>
        <mxCell id="61AJoyGq4dDdh3JpDD7k-39" value="Select command?" style="rhombus;whiteSpace=wrap;html=1;" vertex="1" parent="61AJoyGq4dDdh3JpDD7k-34">
          <mxGeometry x="440" y="20" width="90" height="90" as="geometry"/>
        </mxCell>
        <mxCell id="61AJoyGq4dDdh3JpDD7k-15" style="edgeStyle=orthogonalEdgeStyle;rounded=0;orthogonalLoop=1;jettySize=auto;html=1;exitX=0.5;exitY=1;exitDx=0;exitDy=0;" edge="1" parent="dNxyNK7c78bLwvsdeMH5-19" source="dNxyNK7c78bLwvsdeMH5-23" target="61AJoyGq4dDdh3JpDD7k-14">
          <mxGeometry relative="1" as="geometry"/>
        </mxCell>
        <mxCell id="61AJoyGq4dDdh3JpDD7k-22" style="edgeStyle=orthogonalEdgeStyle;rounded=0;orthogonalLoop=1;jettySize=auto;html=1;exitX=0.5;exitY=1;exitDx=0;exitDy=0;entryX=0.5;entryY=0;entryDx=0;entryDy=0;" edge="1" parent="dNxyNK7c78bLwvsdeMH5-19" source="61AJoyGq4dDdh3JpDD7k-20" target="61AJoyGq4dDdh3JpDD7k-16">
          <mxGeometry relative="1" as="geometry"/>
        </mxCell>
        <mxCell id="61AJoyGq4dDdh3JpDD7k-29" style="edgeStyle=orthogonalEdgeStyle;rounded=0;orthogonalLoop=1;jettySize=auto;html=1;exitX=0.5;exitY=1;exitDx=0;exitDy=0;entryX=0.5;entryY=0;entryDx=0;entryDy=0;" edge="1" parent="dNxyNK7c78bLwvsdeMH5-19" source="61AJoyGq4dDdh3JpDD7k-25" target="61AJoyGq4dDdh3JpDD7k-28">
          <mxGeometry relative="1" as="geometry"/>
        </mxCell>
        <mxCell id="61AJoyGq4dDdh3JpDD7k-42" style="edgeStyle=orthogonalEdgeStyle;rounded=0;orthogonalLoop=1;jettySize=auto;html=1;exitX=0.5;exitY=1;exitDx=0;exitDy=0;entryX=0.5;entryY=0;entryDx=0;entryDy=0;" edge="1" parent="dNxyNK7c78bLwvsdeMH5-19" source="61AJoyGq4dDdh3JpDD7k-40" target="61AJoyGq4dDdh3JpDD7k-38">
          <mxGeometry relative="1" as="geometry"/>
        </mxCell>
        <mxCell id="61AJoyGq4dDdh3JpDD7k-77" value="NO" style="edgeStyle=orthogonalEdgeStyle;rounded=0;orthogonalLoop=1;jettySize=auto;html=1;exitX=1;exitY=1;exitDx=0;exitDy=0;entryX=0.5;entryY=1;entryDx=0;entryDy=0;" edge="1" parent="dNxyNK7c78bLwvsdeMH5-19" source="61AJoyGq4dDdh3JpDD7k-39" target="61AJoyGq4dDdh3JpDD7k-74">
          <mxGeometry relative="1" as="geometry"/>
        </mxCell>
        <mxCell id="61AJoyGq4dDdh3JpDD7k-83" value="YES" style="edgeStyle=orthogonalEdgeStyle;rounded=0;orthogonalLoop=1;jettySize=auto;html=1;exitX=1;exitY=0;exitDx=0;exitDy=0;" edge="1" parent="dNxyNK7c78bLwvsdeMH5-19" source="61AJoyGq4dDdh3JpDD7k-39" target="61AJoyGq4dDdh3JpDD7k-73">
          <mxGeometry relative="1" as="geometry">
            <Array as="points">
              <mxPoint x="528" y="590"/>
              <mxPoint x="490" y="590"/>
            </Array>
          </mxGeometry>
        </mxCell>
        <mxCell id="61AJoyGq4dDdh3JpDD7k-95" value="" style="endArrow=classic;html=1;exitX=1;exitY=0;exitDx=0;exitDy=0;entryX=0;entryY=0.5;entryDx=0;entryDy=0;" edge="1" parent="dNxyNK7c78bLwvsdeMH5-19" source="61AJoyGq4dDdh3JpDD7k-14" target="61AJoyGq4dDdh3JpDD7k-20">
          <mxGeometry width="50" height="50" relative="1" as="geometry">
            <mxPoint x="210" y="130" as="sourcePoint"/>
            <mxPoint x="260" y="80" as="targetPoint"/>
            <Array as="points">
              <mxPoint x="210" y="100"/>
            </Array>
          </mxGeometry>
        </mxCell>
        <mxCell id="61AJoyGq4dDdh3JpDD7k-108" value="NO" style="edgeStyle=orthogonalEdgeStyle;rounded=0;orthogonalLoop=1;jettySize=auto;html=1;exitX=1;exitY=0;exitDx=0;exitDy=0;entryX=0.5;entryY=1;entryDx=0;entryDy=0;" edge="1" parent="dNxyNK7c78bLwvsdeMH5-19" source="61AJoyGq4dDdh3JpDD7k-106" target="61AJoyGq4dDdh3JpDD7k-59">
          <mxGeometry relative="1" as="geometry">
            <Array as="points">
              <mxPoint x="590" y="388"/>
              <mxPoint x="590" y="140"/>
              <mxPoint x="740" y="140"/>
            </Array>
          </mxGeometry>
        </mxCell>
        <mxCell id="61AJoyGq4dDdh3JpDD7k-109" value="YES" style="edgeStyle=orthogonalEdgeStyle;rounded=0;orthogonalLoop=1;jettySize=auto;html=1;exitX=1;exitY=0.5;exitDx=0;exitDy=0;entryX=0.5;entryY=1;entryDx=0;entryDy=0;" edge="1" parent="dNxyNK7c78bLwvsdeMH5-19" source="61AJoyGq4dDdh3JpDD7k-106" target="61AJoyGq4dDdh3JpDD7k-58">
          <mxGeometry relative="1" as="geometry">
            <Array as="points">
              <mxPoint x="630" y="410"/>
              <mxPoint x="630" y="260"/>
              <mxPoint x="900" y="260"/>
            </Array>
          </mxGeometry>
        </mxCell>
        <mxCell id="61AJoyGq4dDdh3JpDD7k-6" value="Some Client" style="swimlane;html=1;startSize=20;horizontal=0;" vertex="1" parent="1">
          <mxGeometry x="220" y="70" width="510" height="100" as="geometry"/>
        </mxCell>
        <mxCell id="61AJoyGq4dDdh3JpDD7k-13" value="Send XML as string to the server" style="rounded=0;whiteSpace=wrap;html=1;fontFamily=Helvetica;fontSize=12;fontColor=#000000;align=center;" vertex="1" parent="61AJoyGq4dDdh3JpDD7k-6">
          <mxGeometry x="45" y="25" width="190" height="50" as="geometry"/>
        </mxCell>
        <mxCell id="61AJoyGq4dDdh3JpDD7k-131" style="edgeStyle=orthogonalEdgeStyle;rounded=0;orthogonalLoop=1;jettySize=auto;html=1;exitX=1;exitY=0.5;exitDx=0;exitDy=0;entryX=0;entryY=0.5;entryDx=0;entryDy=0;" edge="1" parent="61AJoyGq4dDdh3JpDD7k-6" source="61AJoyGq4dDdh3JpDD7k-60" target="61AJoyGq4dDdh3JpDD7k-130">
          <mxGeometry relative="1" as="geometry"/>
        </mxCell>
        <mxCell id="61AJoyGq4dDdh3JpDD7k-60" value="Data received" style="ellipse;whiteSpace=wrap;html=1;" vertex="1" parent="61AJoyGq4dDdh3JpDD7k-6">
          <mxGeometry x="260" y="15" width="80" height="70" as="geometry"/>
        </mxCell>
        <mxCell id="61AJoyGq4dDdh3JpDD7k-130" value="Continue" style="rounded=0;whiteSpace=wrap;html=1;fontFamily=Helvetica;fontSize=12;fontColor=#000000;align=center;" vertex="1" parent="61AJoyGq4dDdh3JpDD7k-6">
          <mxGeometry x="390" y="25" width="85" height="50" as="geometry"/>
        </mxCell>
        <mxCell id="61AJoyGq4dDdh3JpDD7k-43" value="Data Base" style="swimlane;html=1;startSize=20;horizontal=0;" vertex="1" parent="1">
          <mxGeometry x="-260" y="1080" width="420" height="150" as="geometry"/>
        </mxCell>
        <mxCell id="61AJoyGq4dDdh3JpDD7k-48" style="edgeStyle=orthogonalEdgeStyle;rounded=0;orthogonalLoop=1;jettySize=auto;html=1;exitX=1;exitY=0.5;exitDx=0;exitDy=0;entryX=0;entryY=0.5;entryDx=0;entryDy=0;" edge="1" parent="61AJoyGq4dDdh3JpDD7k-43" source="61AJoyGq4dDdh3JpDD7k-45" target="61AJoyGq4dDdh3JpDD7k-47">
          <mxGeometry relative="1" as="geometry"/>
        </mxCell>
        <mxCell id="61AJoyGq4dDdh3JpDD7k-45" value="Command received" style="ellipse;whiteSpace=wrap;html=1;" vertex="1" parent="61AJoyGq4dDdh3JpDD7k-43">
          <mxGeometry x="50" y="25" width="80" height="70" as="geometry"/>
        </mxCell>
        <mxCell id="61AJoyGq4dDdh3JpDD7k-47" value="Calculate Resualt" style="rounded=0;whiteSpace=wrap;html=1;fontFamily=Helvetica;fontSize=12;fontColor=#000000;align=center;" vertex="1" parent="61AJoyGq4dDdh3JpDD7k-43">
          <mxGeometry x="230" y="30" width="90" height="60" as="geometry"/>
        </mxCell>
        <mxCell id="61AJoyGq4dDdh3JpDD7k-51" style="edgeStyle=orthogonalEdgeStyle;rounded=0;orthogonalLoop=1;jettySize=auto;html=1;exitX=0.5;exitY=1;exitDx=0;exitDy=0;entryX=0.5;entryY=0;entryDx=0;entryDy=0;" edge="1" parent="1" source="61AJoyGq4dDdh3JpDD7k-50" target="61AJoyGq4dDdh3JpDD7k-45">
          <mxGeometry relative="1" as="geometry"/>
        </mxCell>
        <mxCell id="61AJoyGq4dDdh3JpDD7k-87" value="Some Process" style="swimlane;html=1;startSize=20;horizontal=0;" vertex="1" parent="1">
          <mxGeometry x="-710" y="30" width="720" height="200" as="geometry"/>
        </mxCell>
        <mxCell id="61AJoyGq4dDdh3JpDD7k-88" value="Send XML as string to the server With Subscribe function" style="rounded=0;whiteSpace=wrap;html=1;fontFamily=Helvetica;fontSize=12;fontColor=#000000;align=center;" vertex="1" parent="61AJoyGq4dDdh3JpDD7k-87">
          <mxGeometry x="140" y="15" width="190" height="50" as="geometry"/>
        </mxCell>
        <mxCell id="61AJoyGq4dDdh3JpDD7k-127" style="edgeStyle=orthogonalEdgeStyle;rounded=0;orthogonalLoop=1;jettySize=auto;html=1;exitX=0.5;exitY=0;exitDx=0;exitDy=0;entryX=0.5;entryY=1;entryDx=0;entryDy=0;" edge="1" parent="61AJoyGq4dDdh3JpDD7k-87" source="61AJoyGq4dDdh3JpDD7k-89" target="61AJoyGq4dDdh3JpDD7k-122">
          <mxGeometry relative="1" as="geometry"/>
        </mxCell>
        <mxCell id="61AJoyGq4dDdh3JpDD7k-89" value="Notification received" style="ellipse;whiteSpace=wrap;html=1;" vertex="1" parent="61AJoyGq4dDdh3JpDD7k-87">
          <mxGeometry x="450" y="100" width="80" height="70" as="geometry"/>
        </mxCell>
        <mxCell id="61AJoyGq4dDdh3JpDD7k-90" value="Send XML as string to the server With Unsubscribe function" style="rounded=0;whiteSpace=wrap;html=1;fontFamily=Helvetica;fontSize=12;fontColor=#000000;align=center;" vertex="1" parent="61AJoyGq4dDdh3JpDD7k-87">
          <mxGeometry x="140" y="85" width="190" height="50" as="geometry"/>
        </mxCell>
        <mxCell id="61AJoyGq4dDdh3JpDD7k-91" value="Send XML with GetDocument fanction" style="rounded=0;whiteSpace=wrap;html=1;fontFamily=Helvetica;fontSize=12;fontColor=#000000;align=center;" vertex="1" parent="61AJoyGq4dDdh3JpDD7k-87">
          <mxGeometry x="570" y="103.75" width="120" height="62.5" as="geometry"/>
        </mxCell>
        <mxCell id="61AJoyGq4dDdh3JpDD7k-123" value="YES" style="edgeStyle=orthogonalEdgeStyle;rounded=0;orthogonalLoop=1;jettySize=auto;html=1;exitX=1;exitY=1;exitDx=0;exitDy=0;entryX=0;entryY=0.5;entryDx=0;entryDy=0;" edge="1" parent="61AJoyGq4dDdh3JpDD7k-87" source="61AJoyGq4dDdh3JpDD7k-122" target="61AJoyGq4dDdh3JpDD7k-91">
          <mxGeometry relative="1" as="geometry"/>
        </mxCell>
        <mxCell id="61AJoyGq4dDdh3JpDD7k-129" value="NO" style="edgeStyle=orthogonalEdgeStyle;rounded=0;orthogonalLoop=1;jettySize=auto;html=1;exitX=1;exitY=0.5;exitDx=0;exitDy=0;entryX=0;entryY=0.5;entryDx=0;entryDy=0;" edge="1" parent="61AJoyGq4dDdh3JpDD7k-87" source="61AJoyGq4dDdh3JpDD7k-122" target="61AJoyGq4dDdh3JpDD7k-124">
          <mxGeometry relative="1" as="geometry"/>
        </mxCell>
        <mxCell id="61AJoyGq4dDdh3JpDD7k-122" value="&lt;span style=&quot;&quot;&gt;Need document?&lt;/span&gt;" style="rhombus;whiteSpace=wrap;html=1;labelBackgroundColor=none;" vertex="1" parent="61AJoyGq4dDdh3JpDD7k-87">
          <mxGeometry x="450" y="5" width="80" height="80" as="geometry"/>
        </mxCell>
        <mxCell id="61AJoyGq4dDdh3JpDD7k-124" value="Continue process" style="rounded=0;whiteSpace=wrap;html=1;fontFamily=Helvetica;fontSize=12;fontColor=#000000;align=center;" vertex="1" parent="61AJoyGq4dDdh3JpDD7k-87">
          <mxGeometry x="570" y="15" width="120" height="62.5" as="geometry"/>
        </mxCell>
        <mxCell id="61AJoyGq4dDdh3JpDD7k-92" style="edgeStyle=orthogonalEdgeStyle;rounded=0;orthogonalLoop=1;jettySize=auto;html=1;exitX=0.5;exitY=0;exitDx=0;exitDy=0;entryX=0.5;entryY=1;entryDx=0;entryDy=0;" edge="1" parent="1" source="61AJoyGq4dDdh3JpDD7k-47" target="61AJoyGq4dDdh3JpDD7k-53">
          <mxGeometry relative="1" as="geometry"/>
        </mxCell>
        <mxCell id="61AJoyGq4dDdh3JpDD7k-96" style="edgeStyle=orthogonalEdgeStyle;rounded=0;orthogonalLoop=1;jettySize=auto;html=1;exitX=0.5;exitY=1;exitDx=0;exitDy=0;entryX=0;entryY=0.5;entryDx=0;entryDy=0;" edge="1" parent="1" source="61AJoyGq4dDdh3JpDD7k-90" target="dNxyNK7c78bLwvsdeMH5-23">
          <mxGeometry relative="1" as="geometry">
            <Array as="points">
              <mxPoint x="-390" y="210"/>
              <mxPoint x="-390" y="305"/>
            </Array>
          </mxGeometry>
        </mxCell>
        <mxCell id="61AJoyGq4dDdh3JpDD7k-97" style="edgeStyle=orthogonalEdgeStyle;rounded=0;orthogonalLoop=1;jettySize=auto;html=1;exitX=1;exitY=0.5;exitDx=0;exitDy=0;entryX=0.5;entryY=0;entryDx=0;entryDy=0;" edge="1" parent="1" source="61AJoyGq4dDdh3JpDD7k-88" target="dNxyNK7c78bLwvsdeMH5-23">
          <mxGeometry relative="1" as="geometry"/>
        </mxCell>
        <mxCell id="61AJoyGq4dDdh3JpDD7k-98" style="edgeStyle=orthogonalEdgeStyle;rounded=0;orthogonalLoop=1;jettySize=auto;html=1;exitX=0.5;exitY=0;exitDx=0;exitDy=0;entryX=0.5;entryY=1;entryDx=0;entryDy=0;" edge="1" parent="1" source="61AJoyGq4dDdh3JpDD7k-59" target="61AJoyGq4dDdh3JpDD7k-60">
          <mxGeometry relative="1" as="geometry"/>
        </mxCell>
        <mxCell id="61AJoyGq4dDdh3JpDD7k-99" style="edgeStyle=orthogonalEdgeStyle;rounded=0;orthogonalLoop=1;jettySize=auto;html=1;exitX=0.5;exitY=0;exitDx=0;exitDy=0;entryX=0.5;entryY=1;entryDx=0;entryDy=0;" edge="1" parent="1" source="61AJoyGq4dDdh3JpDD7k-58" target="61AJoyGq4dDdh3JpDD7k-60">
          <mxGeometry relative="1" as="geometry"/>
        </mxCell>
        <mxCell id="61AJoyGq4dDdh3JpDD7k-121" style="edgeStyle=orthogonalEdgeStyle;rounded=0;orthogonalLoop=1;jettySize=auto;html=1;exitX=0.5;exitY=1;exitDx=0;exitDy=0;entryX=0.5;entryY=0;entryDx=0;entryDy=0;" edge="1" parent="1" source="61AJoyGq4dDdh3JpDD7k-13" target="dNxyNK7c78bLwvsdeMH5-23">
          <mxGeometry relative="1" as="geometry">
            <Array as="points">
              <mxPoint x="360" y="190"/>
              <mxPoint x="170" y="190"/>
              <mxPoint x="170" y="240"/>
              <mxPoint x="-290" y="240"/>
            </Array>
          </mxGeometry>
        </mxCell>
        <mxCell id="61AJoyGq4dDdh3JpDD7k-125" value="" style="startArrow=diamondThin;startFill=0;startSize=14;endArrow=block;endFill=1;endSize=6;html=1;exitX=1;exitY=0.5;exitDx=0;exitDy=0;entryX=0;entryY=0.5;entryDx=0;entryDy=0;" edge="1" parent="1" source="61AJoyGq4dDdh3JpDD7k-87" target="61AJoyGq4dDdh3JpDD7k-6">
          <mxGeometry width="100" relative="1" as="geometry">
            <mxPoint x="90" y="130" as="sourcePoint"/>
            <mxPoint x="190" y="130" as="targetPoint"/>
          </mxGeometry>
        </mxCell>
        <mxCell id="61AJoyGq4dDdh3JpDD7k-128" style="edgeStyle=orthogonalEdgeStyle;rounded=0;orthogonalLoop=1;jettySize=auto;html=1;exitX=0.5;exitY=1;exitDx=0;exitDy=0;" edge="1" parent="1" source="61AJoyGq4dDdh3JpDD7k-91">
          <mxGeometry relative="1" as="geometry">
            <mxPoint x="-290" y="270" as="targetPoint"/>
            <Array as="points">
              <mxPoint x="-80" y="210"/>
              <mxPoint x="-290" y="210"/>
            </Array>
          </mxGeometry>
        </mxCell>
        <mxCell id="61AJoyGq4dDdh3JpDD7k-137" value="" style="endArrow=classic;html=1;labelBackgroundColor=#00CCCC;fontColor=#33FFFF;exitX=0.5;exitY=0;exitDx=0;exitDy=0;entryX=0.5;entryY=1;entryDx=0;entryDy=0;fillColor=#dae8fc;strokeColor=#6c8ebf;strokeWidth=4;" edge="1" parent="1" source="61AJoyGq4dDdh3JpDD7k-118" target="61AJoyGq4dDdh3JpDD7k-89">
          <mxGeometry width="50" height="50" relative="1" as="geometry">
            <mxPoint x="510" y="580" as="sourcePoint"/>
            <mxPoint x="560" y="530" as="targetPoint"/>
          </mxGeometry>
        </mxCell>
      </root>
    </mxGraphModel>
  </diagram>
</mxfile>
